<svg width="16" height="22" viewBox="0 0 16 22" fill="none" xmlns="http://www.w3.org/2000/svg">
<path d="M8 5V8L12 4L8 0V3C5.87827 3 3.84344 3.84285 2.34315 5.34315C0.842855 6.84344 0 8.87827 0 11C0 12.57 0.46 14.03 1.24 15.26L2.7 13.8C2.25 12.97 2 12 2 11C2 9.4087 2.63214 7.88258 3.75736 6.75736C4.88258 5.63214 6.4087 5 8 5V5ZM14.76 6.74L13.3 8.2C13.74 9.04 14 10 14 11C14 12.5913 13.3679 14.1174 12.2426 15.2426C11.1174 16.3679 9.5913 17 8 17V14L4 18L8 22V19C10.1217 19 12.1566 18.1571 13.6569 16.6569C15.1571 15.1566 16 13.1217 16 11C16 9.43 15.54 7.97 14.76 6.74Z" fill="#888888"/>
</svg>
