<svg width="20" height="18" viewBox="0 0 20 18" fill="none" xmlns="http://www.w3.org/2000/svg">
<path d="M12 0C8.59 0 5.69 1.07 4.54 2.57L9.79 7.82C10.5 7.93 11.22 8 12 8C16.42 8 20 6.21 20 4C20 1.79 16.42 0 12 0ZM3.92 4.08L2.5 5.5L5 8H0V10H5L2.5 12.5L3.92 13.92L8.84 9L3.92 4.08ZM20 6C20 8.21 16.42 10 12 10C11.34 10 10.7 9.95 10.09 9.87L7.62 12.34C8.88 12.75 10.38 13 12 13C16.42 13 20 11.21 20 9V6ZM20 11C20 13.21 16.42 15 12 15C9.72 15 7.67 14.5 6.21 13.75L4.53 15.43C5.68 16.93 8.59 18 12 18C16.42 18 20 16.21 20 14" fill="#888888"/>
</svg>
