<svg width="20" height="17" viewBox="0 0 20 17" fill="none" xmlns="http://www.w3.org/2000/svg">
<path d="M16 17L13 14L16 11V13H20V15H16V17ZM11 14C11 14.71 11.15 15.39 11.42 16H0V13C0 10.79 3.58 9 8 9C9 9 9.96 9.09 10.85 9.26C11.68 9.42 12.44 9.64 13.11 9.92C11.83 10.83 11 12.32 11 14ZM2 13V14H9C9 12.96 9.23 11.97 9.64 11.08L8 11C4.69 11 2 11.9 2 13ZM8 0C9.06087 0 10.0783 0.421427 10.8284 1.17157C11.5786 1.92172 12 2.93913 12 4C12 5.06087 11.5786 6.07828 10.8284 6.82843C10.0783 7.57857 9.06087 8 8 8C6.93913 8 5.92172 7.57857 5.17157 6.82843C4.42143 6.07828 4 5.06087 4 4C4 2.93913 4.42143 1.92172 5.17157 1.17157C5.92172 0.421427 6.93913 0 8 0V0ZM8 2C7.46957 2 6.96086 2.21071 6.58579 2.58579C6.21071 2.96086 6 3.46957 6 4C6 4.53043 6.21071 5.03914 6.58579 5.41421C6.96086 5.78929 7.46957 6 8 6C8.53043 6 9.03914 5.78929 9.41421 5.41421C9.78929 5.03914 10 4.53043 10 4C10 3.46957 9.78929 2.96086 9.41421 2.58579C9.03914 2.21071 8.53043 2 8 2V2Z" fill="#888888"/>
</svg>
